<svg width="287" height="88" viewBox="0 0 287 88" xmlns="http://www.w3.org/2000/svg" xmlns:xlink="http://www.w3.org/1999/xlink"><title>7A12DB55-8AE5-48D3-B8E1-B87AE753E3DF</title><defs><path d="M0 14.995C0 6.714 6.713 0 14.995 0h34.01C57.286 0 64 6.713 64 14.995v34.01C64 57.287 57.287 64 49.005 64h-34.01C6.714 64 0 57.287 0 49.005v-34.01z" id="a"/></defs><g fill="none" fill-rule="evenodd"><path d="M87.144 38.925c0 5.6 3.685 9.322 10.912 11.02l7.154 1.735c3.938.94 5.384 2.168 5.384 4.48 0 2.927-2.855 4.77-7.444 4.77-4.697 0-7.624-1.988-8.166-5.565h-8.852c.578 7.335 6.973 12.213 16.657 12.213 9.9 0 16.766-4.95 16.766-12.285 0-5.817-3.035-8.816-10.985-10.66l-6.937-1.59c-3.903-.902-5.745-2.42-5.745-4.624 0-2.89 2.746-4.806 6.937-4.806 4.3 0 7.154 2.096 7.444 5.42h8.382c-.18-7.154-6.54-12.068-15.645-12.068-9.503 0-15.862 4.806-15.862 11.96zm38.535-20.235v8.817h-5.383v6.973h5.383v22.041c0 7.625 3.325 10.66 11.707 10.66 1.916 0 3.758-.145 4.734-.362v-6.901c-.578.072-1.807.18-2.674.18-3.252 0-4.77-1.553-4.77-4.805V34.48h7.48v-6.973h-7.48V18.69h-8.997zm24.842 62.69c8.853 0 13.08-3.287 16.44-13.007l14.309-40.866h-9.503l-9.43 31.724h-.181l-9.467-31.724h-9.792l14.128 39.638-.506 1.842c-1.12 3.722-3.252 5.203-7.082 5.203-.578 0-1.951-.036-2.457-.144V81.2c.542.109 2.999.18 3.541.18zM183.601 67h8.997V12.44H183.6V67zm14.833 0h8.997V27.507h-8.997V67zm4.48-44.516c2.818 0 5.059-2.168 5.059-4.95 0-2.818-2.24-4.95-5.059-4.95-2.782 0-5.059 2.132-5.059 4.95 0 2.782 2.277 4.95 5.059 4.95zm9.34 16.44c0 5.601 3.686 9.323 10.913 11.021l7.154 1.735c3.938.94 5.384 2.168 5.384 4.48 0 2.927-2.855 4.77-7.444 4.77-4.697 0-7.624-1.988-8.166-5.565h-8.852c.578 7.335 6.974 12.213 16.657 12.213 9.9 0 16.766-4.95 16.766-12.285 0-5.817-3.035-8.816-10.985-10.66l-6.937-1.59c-3.902-.902-5.745-2.42-5.745-4.624 0-2.89 2.746-4.806 6.937-4.806 4.3 0 7.155 2.096 7.444 5.42h8.382c-.18-7.154-6.54-12.068-15.645-12.068-9.503 0-15.862 4.806-15.862 11.96zM248.55 67h8.997V44.49c0-5.89 3.433-9.829 9.142-9.829 5.456 0 8.238 3.36 8.238 8.925V67h8.997V41.78c0-8.998-5.13-14.743-13.839-14.743-6.034 0-10.153 2.53-12.465 7.335h-.181V12.44h-8.889V67z" fill="#2C3E50"/><g transform="translate(7 12)"><mask id="b" fill="#fff"><use xlink:href="#a"/></mask><use fill-opacity="0" fill="#FFF" xlink:href="#a"/><path fill="#2ECC71" mask="url(#b)" d="M30 0v39H0V0z"/><path fill="#E74C3C" mask="url(#b)" d="M64 0v21H34V0z"/><path fill="#F39C12" mask="url(#b)" d="M30 43v21H0V43z"/><path fill="#3498DB" mask="url(#b)" d="M64 25.5v39H34v-39z"/></g></g></svg>